<svg width="24" height="24" viewBox="0 0 24 24" fill="none" xmlns="http://www.w3.org/2000/svg">
  <path d="M9.66347 17H14.3364" stroke="#8B5CF6" stroke-width="2" stroke-linecap="round" stroke-linejoin="round"/>
  <path d="M11.9999 3V4" stroke="#8B5CF6" stroke-width="2" stroke-linecap="round" stroke-linejoin="round"/>
  <path d="M18.3639 5.63604L17.6568 6.34315" stroke="#8B5CF6" stroke-width="2" stroke-linecap="round" stroke-linejoin="round"/>
  <path d="M21 12H20" stroke="#8B5CF6" stroke-width="2" stroke-linecap="round" stroke-linejoin="round"/>
  <path d="M18.3639 18.364L17.6568 17.6569" stroke="#8B5CF6" stroke-width="2" stroke-linecap="round" stroke-linejoin="round"/>
  <path d="M5.63607 18.364L6.34317 17.6569" stroke="#8B5CF6" stroke-width="2" stroke-linecap="round" stroke-linejoin="round"/>
  <path d="M4 12H3" stroke="#8B5CF6" stroke-width="2" stroke-linecap="round" stroke-linejoin="round"/>
  <path d="M5.63607 5.63604L6.34317 6.34315" stroke="#8B5CF6" stroke-width="2" stroke-linecap="round" stroke-linejoin="round"/>
  <path d="M12 19V20" stroke="#8B5CF6" stroke-width="2" stroke-linecap="round" stroke-linejoin="round"/>
  <path d="M12 6.5C9.51 6.5 7.5 8.51 7.5 11C7.5 11.5 7.5 12 7.63 12.5C6.67 13.5 6 14.83 6 16V17H18V16C18 14.83 17.33 13.5 16.37 12.5C16.5 12 16.5 11.5 16.5 11C16.5 8.51 14.49 6.5 12 6.5Z" stroke="#8B5CF6" stroke-width="2" stroke-linecap="round" stroke-linejoin="round"/>
</svg> 